<?xml version="1.0" encoding="utf-8"?>
<!-- Generator: Adobe Illustrator 27.1.1, SVG Export Plug-In . SVG Version: 6.00 Build 0)  -->
<svg version="1.1" id="Layer_1" xmlns="http://www.w3.org/2000/svg" xmlns:xlink="http://www.w3.org/1999/xlink" x="0px" y="0px"
	 viewBox="0 0 503.54 222.72" style="enable-background:new 0 0 503.54 222.72;" xml:space="preserve">
<style type="text/css">
	.st0{fill:#1D5D9B;}
	.st1{fill:#FFFFFF;}
</style>
<path class="st0" d="M23.09,172.26L38.07,50.49h30.84l14.62,64.81l8.02-64.81h30.84l-14.98,121.77H76.58l-14.62-65.34l-8.02,65.34
	H23.09z"/>
<path class="st0" d="M147.86,174.04c-10.34,0-18.45-3.03-24.25-9.09c-5.88-6.06-8.83-14.62-8.83-25.76
	c0-15.24,4.37-27.99,13.1-38.33c8.65-10.34,19.43-15.51,32.36-15.51c10.07,0,18.1,3.3,23.98,9.81c5.79,6.6,8.74,15.51,8.74,26.74
	c0,3.66-0.54,8.47-1.52,14.44h-45.64c-0.09,1.07-0.18,2.32-0.18,3.65c0,6.33,1.96,9.45,5.88,9.45c3.48,0,6.06-2.05,7.67-6.06
	l30.49,0.62c-3.39,9.72-8.65,17.2-15.69,22.29C166.94,171.45,158.2,174.04,147.86,174.04z M162.84,119.31
	c0.09-0.62,0.18-1.78,0.18-3.57c0-1.78-0.53-3.48-1.6-4.99c-1.16-1.52-2.58-2.23-4.46-2.23c-4.55,0-7.4,3.57-8.56,10.79H162.84z"/>
<path class="st0" d="M221.39,145.6c0-2.32-2.41-4.37-7.31-6.24c-12.75-4.72-19.17-11.77-19.17-21.13c0-9.36,3.74-17.29,11.14-23.62
	c7.4-6.33,16.4-9.45,27.01-9.45c8.02,0,16.05,2.32,24.16,6.95l-13.55,23.18c-4.37-5.08-8.29-7.67-11.68-7.67
	c-3.21,0-5.44,2.14-5.44,4.72c-0.09,2.58,2.94,5.08,9,7.67c6.06,2.58,9.98,4.9,11.77,7.13c3.3,3.65,4.9,8.56,4.9,14.89
	s-2.58,12.66-7.67,19.08c-7.22,8.65-17.03,12.93-29.51,12.93c-5.26,0-9.9-0.62-14-1.96c-4.1-1.25-10.89-4.36-16.86-7.75l14.98-27.67
	c4.9,5.97,10.8,13.84,15.7,13.84C218.54,150.5,221.39,148.37,221.39,145.6z"/>
<path class="st0" d="M289.65,172.26h-31.2l7.49-59.9h-9l3.12-25.32h8.91l3.12-25.05h31.02l-3.03,25.05h10.34l-3.12,25.32h-10.34
	L289.65,172.26z"/>
<path class="st0" d="M335.07,172.26h-31.2l10.34-85.22h31.2L335.07,172.26z M334.89,42.11c4.99,0,9,1.52,12.03,4.64
	c3.03,3.12,4.55,7.13,4.55,12.21s-2.05,9.63-6.15,13.73c-4.19,4.19-8.74,6.24-13.73,6.24c-4.99,0-9-1.51-12.03-4.63
	c-3.12-3.12-4.64-7.13-4.64-12.21s2.05-9.63,6.24-13.82C325.35,44.16,329.9,42.11,334.89,42.11z"/>
<path class="st0" d="M390.95,75.09l-1.52,11.95h11.14l-3.03,25.32h-11.14l-7.31,59.9h-31.29l7.31-59.9h-8.91l3.12-25.32h8.91
	l2.05-15.78c1.16-10.25,4.1-17.92,8.74-23c6.33-6.95,14-10.43,23-10.34c4.28,0,9.09,0.71,14.44,2.14l-3.66,29.24
	c-2.41-1.96-4.46-2.94-6.06-2.94C393.45,66.36,391.58,69.3,390.95,75.09z"/>
<path class="st0" d="M431.83,208h-32.18l18.45-39.22l-14.98-81.74h31.47l4.19,46l15.33-46h31.02L431.83,208z"/>
</svg>
